<?xml version="1.0" encoding="UTF-8"?><svg xmlns="http://www.w3.org/2000/svg" width="21.968mm" height="17.639mm" viewBox="0 0 62.271 50"><g id="a"/><g id="b"><g id="c"><g><polygon points="36.967 .003 35.358 4.373 48.781 4.373 48.781 45.631 4.982 45.631 4.982 26.189 0 26.189 0 50 53.728 49.997 53.728 4.373 60.618 4.373 62.271 .003 36.967 .003" style="fill:#b01917;"/><polygon points="18.112 19.83 19.756 24.199 .046 24.199 .046 0 34.923 0 33.313 4.369 5.028 4.369 5.028 9.406 14.256 9.406 15.728 13.451 5.028 13.451 5.028 19.83 18.112 19.83" style="fill:#b01917;"/><path d="M20.539,6.617l3.448,11.533,3.398-11.533h5.084l-6.473,17.61h-4.018L15.43,6.617h5.109Z" style="fill:#b01917;"/><path d="M44.184,17.75c.794-.562,1.414-1.286,1.86-2.17,.447-.884,.67-1.84,.67-2.865,0-.745-.149-1.484-.447-2.22-.298-.736-.707-1.389-1.228-1.96-.521-.57-1.145-1.033-1.873-1.389s-1.521-.534-2.381-.534h-6.297l-1.788,4.814v12.797h4.836v-5.407h1.81l3.1,5.407h4.364l-.006-1.913-2.621-4.561Zm-2.766-3.646c-.256,.331-.533,.496-.831,.496h-3.051v-3.77h2.927c.298,0,.595,.161,.893,.484,.297,.322,.447,.789,.447,1.401,0,.595-.129,1.058-.385,1.389Z" style="fill:#b01917;"/><path d="M7.036,26.155v17.653H25.837V26.155H7.036Zm13.819,12.629H12.018v-7.646h8.836v7.646Z" style="fill:#b01917;"/><path d="M27.94,26.155v17.653h18.851V26.155H27.94Zm13.863,12.67h-8.88v-7.646h8.88v7.646Z" style="fill:#b01917;"/></g></g></g></svg>