<svg width="71" height="71" viewBox="0 0 71 71" fill="none" xmlns="http://www.w3.org/2000/svg">
<path d="M59.8687 60.6882C56.6083 63.9493 52.7262 66.52 48.4535 68.2472C44.1808 69.9743 39.6049 70.8227 34.9981 70.7418C30.4202 70.8319 25.872 69.9861 21.6314 68.256C17.3907 66.526 13.5468 63.948 10.3343 60.6796C7.04618 57.4725 4.45278 53.6213 2.71572 49.3662C0.978666 45.111 0.135184 40.543 0.237857 35.9469C0.237857 25.8905 3.60907 17.511 10.3515 10.8086C13.566 7.54112 17.4118 4.96438 21.6539 3.23581C25.8959 1.50724 30.4453 0.663138 35.024 0.755069C39.6298 0.676912 44.2043 1.52743 48.4754 3.25604C52.7465 4.98464 56.6269 7.55603 59.886 10.8173C66.7777 17.5254 70.2236 25.9077 70.2236 35.9642C70.3107 40.5803 69.4346 45.1637 67.6516 49.4212C65.8685 53.6786 63.2176 57.5162 59.8687 60.6882V60.6882Z" fill="#301748"/>
<path d="M33.632 57.8903C32.4742 56.818 31.3912 55.6668 30.3908 54.4449C28.0031 51.3578 22.6839 45.9292 21.3622 44.5757C19.8388 43.0159 18.301 41.4597 16.792 39.8709C16.5723 39.6429 16.2158 39.3787 16.4319 38.9951C16.648 38.6114 17.0657 38.6693 17.4331 38.6911C17.5974 38.7017 17.7591 38.7384 17.912 38.7996C18.9925 39.2291 20.0729 39.6646 21.1533 40.1061C23.3141 40.9819 25.4281 41.8903 27.5925 42.7119C28.8962 43.2077 29.4472 42.7119 29.2023 41.3402C28.997 40.193 28.7089 39.0674 28.4028 37.9383C28.3328 37.6901 28.3172 37.4295 28.357 37.1747C28.3969 36.9198 28.4913 36.6766 28.6337 36.462C28.7761 36.2473 28.9632 36.0662 29.1819 35.9312C29.4007 35.7962 29.646 35.7105 29.901 35.68C30.3476 35.6148 30.7977 35.604 31.2443 35.5678C31.6909 35.5316 32.1482 35.423 32.3247 34.9019C32.4099 34.672 32.4195 34.4207 32.352 34.1849C32.2846 33.9491 32.1438 33.7412 31.9502 33.5918C30.4808 32.1695 29.0295 30.7327 27.5745 29.2923C23.9299 25.6732 20.2877 22.0541 16.648 18.435C14.4871 16.2998 12.3359 14.1657 10.1943 12.0329C9.98184 11.823 9.75856 11.6384 9.92782 11.3091C10.0971 10.9797 10.3816 11.0196 10.6733 11.0775C11.5664 11.2584 12.2111 11.9026 12.917 12.3876C14.8005 13.6904 16.7704 14.8558 18.6791 16.0899C20.0116 16.9404 21.3658 17.7583 22.6947 18.6232C24.0236 19.4882 25.284 20.3423 26.5913 21.1783C28.4712 22.3762 30.3692 23.5416 32.2455 24.7431C34.2694 26.0387 36.279 27.3561 38.2886 28.6734C38.6487 28.9123 38.9836 29.0353 39.369 28.6951C39.7543 28.355 39.6967 28.0148 39.5238 27.5551C39.1205 26.4694 38.3678 25.5936 38.0833 24.4825C37.9824 24.1206 37.9032 23.7587 38.2634 23.4764C38.4077 23.3595 38.5854 23.2919 38.7707 23.2834C38.9559 23.275 39.139 23.3261 39.2933 23.4294C40.6586 24.0791 41.9871 24.804 43.2729 25.6008C44.8394 26.5882 46.471 27.4672 48.1563 28.2319C50.8969 29.542 53.5151 31.0765 56.1081 32.6327C57.5385 33.5473 58.7717 34.7411 59.7347 36.1432C60.4894 37.1834 61.1192 38.3095 61.611 39.4981C62.3112 41.2209 62.7752 43.0313 62.9903 44.8797C63.4153 48.1803 62.216 52.4219 60.6854 54.6946C59.3774 56.7604 57.6762 58.5462 55.6795 59.9495C54.3331 60.8707 52.8824 61.6276 51.3579 62.2042C49.7625 62.834 48.1167 62.9281 46.3484 62.9932C46.2045 63.0022 46.0602 63.0022 45.9162 62.9932C42.2717 62.7724 38.6847 62.2513 33.632 57.8903ZM57.2245 46.8666C57.254 45.4272 56.9956 43.9966 56.4645 42.6595C55.9334 41.3224 55.1406 40.1061 54.133 39.0827C53.1253 38.0593 51.9235 37.2497 50.5986 36.7019C49.2738 36.154 47.853 35.8791 46.4204 35.8935C40.6366 35.9261 35.8756 40.6707 35.8576 46.9462C35.8576 52.078 40.8311 57.8034 46.4817 57.4415C52.3195 57.6804 57.1885 52.382 57.2245 46.8666Z" fill="url(#paint0_linear_102_15028)"/>
<path d="M20.7858 32.8934C20.7818 33.3334 20.949 33.7575 21.2518 34.0752C21.5546 34.393 21.9689 34.5793 22.4065 34.5944C22.6264 34.5925 22.8436 34.5453 23.0447 34.4558C23.2458 34.3662 23.4265 34.2362 23.5757 34.0738C23.7248 33.9114 23.8393 33.7199 23.912 33.5113C23.9846 33.3027 24.014 33.0813 23.9983 32.8609C23.98 32.42 23.7951 32.0026 23.4813 31.694C23.1674 31.3853 22.7483 31.2085 22.3092 31.1997C21.887 31.2303 21.4929 31.4236 21.2091 31.7391C20.9252 32.0547 20.7736 32.4682 20.7858 32.8934V32.8934Z" fill="url(#paint1_linear_102_15028)"/>
<path d="M27.5963 12.1956C28.5723 12.1956 29.1521 11.5659 29.1485 10.5634C29.123 10.151 28.946 9.76279 28.652 9.47395C28.3579 9.18512 27.9676 9.01623 27.5567 9C26.8364 9 25.8461 9.91925 25.8389 10.6105C25.864 11.0544 26.0629 11.4704 26.3922 11.7674C26.7215 12.0644 27.1544 12.2184 27.5963 12.1956V12.1956Z" fill="url(#paint2_linear_102_15028)"/>
<path d="M9.98193 26.6973C9.99177 26.4986 9.96001 26.3 9.8887 26.1144C9.81738 25.9288 9.7081 25.7602 9.56792 25.6197C9.42774 25.4792 9.25978 25.3698 9.07489 25.2986C8.89 25.2273 8.6923 25.1959 8.49457 25.2063C8.10046 25.2423 7.73244 25.4198 7.45796 25.7062C7.18347 25.9927 7.02089 26.369 7 26.7661C7.02811 27.15 7.19614 27.5099 7.47191 27.777C7.74768 28.0441 8.11181 28.1996 8.49457 28.2137C8.69354 28.2205 8.89175 28.1857 9.07667 28.1116C9.2616 28.0375 9.42923 27.9256 9.56899 27.7831C9.70875 27.6407 9.8176 27.4706 9.88867 27.2837C9.95975 27.0968 9.9915 26.8972 9.98193 26.6973Z" fill="url(#paint3_linear_102_15028)"/>
<path d="M46.4815 57.4233C52.3193 57.6802 57.1883 52.3819 57.2244 46.8664C57.2538 45.4271 56.9954 43.9964 56.4643 42.6593C55.9333 41.3222 55.1404 40.1059 54.1328 39.0825C53.1252 38.0592 51.9233 37.2495 50.5985 36.7017C49.2736 36.1539 47.8528 35.879 46.4203 35.8934C40.6365 35.9259 35.8755 40.6705 35.8575 46.946C35.8395 52.0779 40.831 57.7852 46.4815 57.4233Z" fill="url(#paint4_linear_102_15028)"/>
<defs>
<linearGradient id="paint0_linear_102_15028" x1="63.0767" y1="37.0263" x2="9.86299" y2="37.0263" gradientUnits="userSpaceOnUse">
<stop stop-color="#E2107B"/>
<stop offset="1" stop-color="#301748"/>
</linearGradient>
<linearGradient id="paint1_linear_102_15028" x1="23.9983" y1="32.8934" x2="20.7714" y2="32.8934" gradientUnits="userSpaceOnUse">
<stop stop-color="#E2107B"/>
<stop offset="1" stop-color="#0D1126"/>
</linearGradient>
<linearGradient id="paint2_linear_102_15028" x1="29.1485" y1="10.5996" x2="25.8425" y2="10.5996" gradientUnits="userSpaceOnUse">
<stop stop-color="#E2107B"/>
<stop offset="1" stop-color="#0D1126"/>
</linearGradient>
<linearGradient id="paint3_linear_102_15028" x1="9.98913" y1="26.7046" x2="7.0072" y2="26.7046" gradientUnits="userSpaceOnUse">
<stop stop-color="#E2107B"/>
<stop offset="1" stop-color="#0D1126"/>
</linearGradient>
<linearGradient id="paint4_linear_102_15028" x1="62.9793" y1="53.0623" x2="36.3676" y2="42.8537" gradientUnits="userSpaceOnUse">
<stop stop-color="#301748"/>
<stop offset="1" stop-color="#E2107B"/>
</linearGradient>
</defs>
</svg>
